<?xml version="1.0" encoding="iso-8859-1"?>
<!-- Uploaded to: SVG Repo, www.svgrepo.com, Generator: SVG Repo Mixer Tools -->
<svg version="1.1" id="Layer_1" xmlns="http://www.w3.org/2000/svg" xmlns:xlink="http://www.w3.org/1999/xlink" 
	 viewBox="0 0 512.001 512.001" xml:space="preserve">
<circle style="fill:#FFC25D;" cx="334.169" cy="184.519" r="83.592"/>
<circle style="fill:#FFDE90;" cx="334.169" cy="184.519" r="47.766"/>
<path style="fill:#9FE1ED;" d="M425.92,282.226c0.004-0.308,0.023-0.613,0.023-0.923c0-36.74-29.783-66.522-66.522-66.522
	c-11.645,0-22.588,3.001-32.109,8.259c-21.173-41.2-64.097-69.386-113.607-69.386c-70.499,0-127.651,57.152-127.651,127.651
	c0,0.309,0.009,0.615,0.011,0.924c-44.112,5.596-78.229,43.236-78.229,88.87l0,0c0,49.493,40.122,89.614,89.615,89.614h317.097
	c49.493,0,89.615-40.122,89.615-89.614l0,0C504.163,325.46,470.04,287.819,425.92,282.226z"/>
<path style="fill:#5BCDE4;" d="M414.549,419.352H97.451c-42.392,0-77.883-29.444-87.202-68.989
	c-1.578,6.655-2.413,13.597-2.413,20.736l0,0c0,49.493,40.122,89.614,89.615,89.614h317.097c49.493,0,89.615-40.122,89.615-89.614
	l0,0c0-7.138-0.835-14.08-2.413-20.736C492.431,389.908,456.94,419.352,414.549,419.352z"/>
<path d="M433.558,275.53c-1.349-17.495-8.793-33.299-20.186-45.324c8.014-13.86,12.225-29.525,12.225-45.695
	c0-50.414-41.014-91.429-91.429-91.429c-27.834,0-53.809,12.45-71.266,34.157l12.214,9.822
	c14.467-17.989,35.989-28.306,59.052-28.306c41.772,0,75.755,33.983,75.755,75.755c0,12.425-2.998,24.487-8.724,35.327
	c-11.917-8.125-26.298-12.894-41.778-12.894c-9.909,0-19.737,1.993-28.821,5.809c-24.307-41.478-68.422-66.937-116.893-66.937
	c-72.779,0-132.339,57.685-135.368,129.732C33.227,284.519,0,324.451,0,371.098c0,53.734,43.716,97.45,97.451,97.45H414.55
	c53.735,0,97.451-43.716,97.451-97.451C512,324.413,478.723,284.459,433.558,275.53z M414.549,452.875H97.451
	c-45.093,0-81.778-36.685-81.778-81.778c0-41.069,30.687-75.932,71.38-81.095l6.896-0.876l-0.057-7.822
	c0-66.066,53.748-119.814,119.814-119.814c45.129,0,85.99,24.957,106.636,65.132l3.691,7.183l7.069-3.904
	c8.627-4.765,18.418-7.283,28.32-7.283c32.359,0,58.686,26.326,58.686,58.686l-0.007,0.24c-0.007,0.193-0.014,0.386-0.016,0.579
	l-0.093,6.999l6.944,0.88c40.699,5.158,71.391,40.022,71.391,81.097C496.327,416.191,459.641,452.875,414.549,452.875z"/>
<rect x="326.332" y="43.453" width="15.673" height="31.347"/>
<rect x="255.803" y="68.081" transform="matrix(-0.5 -0.866 0.866 -0.5 341.4711 348.9817)" width="31.346" height="15.673"/>
<rect x="209.902" y="113.976" transform="matrix(-0.866 -0.5 0.5 -0.866 360.019 340.0951)" width="31.346" height="15.673"/>
<rect x="427.087" y="239.374" transform="matrix(0.866 0.5 -0.5 0.866 182.9295 -188.2631)" width="31.346" height="15.673"/>
<rect x="443.883" y="176.682" width="31.347" height="15.673"/>
<rect x="434.925" y="106.131" transform="matrix(-0.5 -0.866 0.866 -0.5 558.6623 566.148)" width="15.673" height="31.346"/>
<rect x="389.021" y="60.249" transform="matrix(-0.866 -0.5 0.5 -0.866 702.5815 340.1053)" width="15.673" height="31.346"/>
</svg>